<?xml version="1.0" encoding="UTF-8" standalone="no"?>
<svg
   xmlns:dc="http://purl.org/dc/elements/1.1/"
   xmlns:cc="http://creativecommons.org/ns#"
   xmlns:rdf="http://www.w3.org/1999/02/22-rdf-syntax-ns#"
   xmlns:svg="http://www.w3.org/2000/svg"
   xmlns="http://www.w3.org/2000/svg"
   id="svg19322"
   xml:space="preserve"
   width="110"
   viewBox="0 0 110 157.08754"
   version="1.1"
   height="157.08754"><metadata
     id="metadata19388"><rdf:RDF><cc:Work
         rdf:about=""><dc:format>image/svg+xml</dc:format><dc:type
           rdf:resource="http://purl.org/dc/dcmitype/StillImage" /><dc:title></dc:title></cc:Work></rdf:RDF></metadata><defs
     id="defs19386" /><g
     id="g5977"><g
       transform="matrix(0.29889595,0,0,0.29889595,-21.512889,5.6464868)"
       id="g6057"><g
         transform="matrix(0.990748,0,0,0.990748,2.3535428,-98.88058)"
         style="enable-background:new"
         id="形状_1_19_"><g
           id="形状_1"><g
             id="g19326"><polygon
               id="polygon19328"
               style="clip-rule:evenodd;fill:#1758a7;fill-rule:evenodd"
               points="122.593,450.579 255.999,486.501 389.402,450.579 420.191,117.07 91.809,117.07 " /></g></g></g><g
         transform="matrix(0.990748,0,0,0.990748,2.3535428,-98.88058)"
         style="enable-background:new"
         id="形状_1_18_"><g
           id="形状_1_1_"><g
             id="g19332"><polygon
               id="polygon19334"
               style="clip-rule:evenodd;fill:#379ad6;fill-rule:evenodd"
               points="255.997,457.852 256.298,457.933 364.257,428.863 389.175,144.084 255.997,144.084 " /></g></g></g><g
         transform="matrix(0.990748,0,0,0.990748,2.3535428,-98.88058)"
         style="enable-background:new"
         id="形状_1_17_"><g
           id="形状_1_2_-7"><g
             id="g19338"><polygon
               id="polygon19340"
               style="clip-rule:evenodd;fill:#e8e8e7;fill-rule:evenodd"
               points="256.001,416.637 256.001,372.43 255.623,372.537 255.551,372.558 210.981,361.197 208.28,328.479 166.861,328.479 172.263,391.644 " /></g></g></g><g
         transform="matrix(0.990748,0,0,0.990748,2.3535428,-98.88058)"
         style="enable-background:new"
         id="形状_1_16_"><g
           id="形状_1_3_-5"><g
             id="g19344"><polygon
               id="polygon19346"
               style="clip-rule:evenodd;fill:#fbfbfa;fill-rule:evenodd"
               points="340.114,392.114 351.007,266.782 256.001,266.782 256.001,306.911 256.12,306.911 305.622,306.965 302.445,359.419 256.12,372.47 256.001,372.504 256.001,416.591 256.12,416.627 256.153,416.637 " /></g></g></g><g
         transform="matrix(0.990748,0,0,0.990748,2.3535428,-98.88058)"
         style="enable-background:new"
         id="形状_1_15_"><g
           id="形状_1_4_"><g
             id="g19350"><polygon
               id="polygon19352"
               style="clip-rule:evenodd;fill:#e5e4e2;fill-rule:evenodd"
               points="164.154,306.869 164.159,306.931 256.001,306.937 256.001,266.782 161.002,266.782 " /></g></g></g><g
         transform="matrix(0.990748,0,0,0.990748,2.3535428,-98.88058)"
         style="enable-background:new"
         id="形状_1_14_"><g
           id="形状_1_5_"><g
             id="g19356"><polygon
               id="polygon19358"
               style="clip-rule:evenodd;fill:#eeeeee;fill-rule:evenodd"
               points="256.001,266.681 256.001,226.617 161.008,266.782 255.768,266.782 " /></g></g></g><g
         transform="matrix(0.990748,0,0,0.990748,2.3535428,-98.88058)"
         style="enable-background:new"
         id="形状_1_13_"><g
           id="形状_1_6_-3"><g
             id="g19362"><polygon
               id="polygon19364"
               style="clip-rule:evenodd;fill:#ffffff;fill-rule:evenodd"
               points="256.001,266.773 353.955,224.667 261.553,224.667 256.001,226.992 " /></g></g></g><g
         transform="matrix(0.990748,0,0,0.990748,2.3535428,-98.88058)"
         style="enable-background:new"
         id="形状_1_12_"><g
           id="形状_1_7_-5"><g
             id="g19368"><polygon
               id="polygon19370"
               style="clip-rule:evenodd;fill:#e7e7e6;fill-rule:evenodd"
               points="256.001,224.667 256.001,184.515 152.196,184.515 157.16,224.667 " /></g></g></g><g
         transform="matrix(0.990748,0,0,0.990748,2.3535428,-98.88058)"
         style="enable-background:new"
         id="形状_1_11_"><g
           id="形状_1_8_-6"><g
             id="g19374"><path
               id="path19376"
               style="clip-rule:evenodd;fill:#f8f8f7;fill-rule:evenodd"
               d="m 256.001,224.667 101.842,-40.152 -101.842,0 0,40.152 z m 0.027,0 97.76,0 4.056,-40.152 -101.816,40.152 z" /></g></g></g></g><g
       style="font-style:normal;font-weight:normal;font-size:22.5px;line-height:125%;font-family:sans-serif;letter-spacing:0px;word-spacing:0px;fill:#000000;fill-opacity:1;stroke:none;stroke-width:1px;stroke-linecap:butt;stroke-linejoin:miter;stroke-opacity:1"
       id="text5964"><path
         d="m 34.697266,144.83757 q -1.42334,0.73853 -2.96753,1.1145 -1.544189,0.37598 -3.222656,0.37598 -5.008545,0 -7.935791,-2.79297 -2.927246,-2.8064 -2.927246,-7.6001 0,-4.80713 2.927246,-7.6001 2.927246,-2.80639 7.935791,-2.80639 1.678467,0 3.222656,0.37597 1.54419,0.37598 2.96753,1.11451 l 0,4.14917 q -1.436768,-0.98023 -2.833252,-1.43677 -1.396485,-0.45654 -2.940674,-0.45654 -2.766113,0 -4.350586,1.77246 -1.584473,1.77246 -1.584473,4.88769 0,3.10181 1.584473,4.87427 1.584473,1.77246 4.350586,1.77246 1.544189,0 2.940674,-0.45654 1.396484,-0.45655 2.833252,-1.43677 l 0,4.14917 z"
         style="font-style:normal;font-variant:normal;font-weight:bold;font-stretch:normal;font-size:27.5px;font-family:sans-serif;-inkscape-font-specification:'sans-serif Bold'"
         id="path5969" /><path
         d="m 53.482666,126.52214 0,4.24316 q -1.651611,-0.73852 -3.222656,-1.1145 -1.571045,-0.37597 -2.96753,-0.37597 -1.853027,0 -2.739257,0.51025 -0.886231,0.51025 -0.886231,1.58447 0,0.80567 0.59082,1.26221 0.604249,0.44311 2.175293,0.76538 l 2.202149,0.44312 q 3.343506,0.67138 4.753418,2.04101 1.409912,1.36963 1.409912,3.89404 0,3.31665 -1.973877,4.94141 -1.960449,1.61133 -6.002197,1.61133 -1.906739,0 -3.826905,-0.36255 -1.920166,-0.36255 -3.840332,-1.07422 l 0,-4.36401 q 1.920166,1.02051 3.706055,1.54419 1.799317,0.51025 3.464356,0.51025 1.691894,0 2.591552,-0.56396 0.899659,-0.56397 0.899659,-1.61133 0,-0.93994 -0.617676,-1.4502 -0.604248,-0.51025 -2.43042,-0.91308 l -2.000733,-0.44312 q -3.007812,-0.64453 -4.404296,-2.05444 -1.383057,-1.40991 -1.383057,-3.80005 0,-2.99439 1.933594,-4.60571 1.933593,-1.61133 5.559082,-1.61133 1.651611,0 3.397216,0.25513 1.745606,0.24169 3.612061,0.73852 z"
         style="font-style:normal;font-variant:normal;font-weight:bold;font-stretch:normal;font-size:27.5px;font-family:sans-serif;-inkscape-font-specification:'sans-serif Bold'"
         id="path5971" /><path
         d="m 72.06665,126.52214 0,4.24316 q -1.651611,-0.73852 -3.222656,-1.1145 -1.571045,-0.37597 -2.967529,-0.37597 -1.853028,0 -2.739258,0.51025 -0.88623,0.51025 -0.88623,1.58447 0,0.80567 0.59082,1.26221 0.604248,0.44311 2.175293,0.76538 l 2.202148,0.44312 q 3.343506,0.67138 4.753418,2.04101 1.409912,1.36963 1.409912,3.89404 0,3.31665 -1.973877,4.94141 -1.960449,1.61133 -6.002197,1.61133 -1.906738,0 -3.826904,-0.36255 -1.920166,-0.36255 -3.840332,-1.07422 l 0,-4.36401 q 1.920166,1.02051 3.706054,1.54419 1.799317,0.51025 3.464356,0.51025 1.691894,0 2.591553,-0.56396 0.899658,-0.56397 0.899658,-1.61133 0,-0.93994 -0.617676,-1.4502 -0.604248,-0.51025 -2.43042,-0.91308 l -2.000732,-0.44312 q -3.007813,-0.64453 -4.404297,-2.05444 -1.383057,-1.40991 -1.383057,-3.80005 0,-2.99439 1.933594,-4.60571 1.933594,-1.61133 5.559082,-1.61133 1.651611,0 3.397217,0.25513 1.745605,0.24169 3.61206,0.73852 z"
         style="font-style:normal;font-variant:normal;font-weight:bold;font-stretch:normal;font-size:27.5px;font-family:sans-serif;-inkscape-font-specification:'sans-serif Bold'"
         id="path5973" /><path
         d="m 88.220215,135.12932 q 2.027588,0.52368 3.074951,1.82617 1.060791,1.28906 1.060791,3.2898 0,2.98095 -2.282715,4.53857 -2.282715,1.54419 -6.660156,1.54419 -1.54419,0 -3.101807,-0.25513 -1.544189,-0.2417 -3.061523,-0.73852 l 0,-3.98804 q 1.450195,0.7251 2.873535,1.10107 1.436768,0.36255 2.819824,0.36255 2.054444,0 3.14209,-0.71167 1.101074,-0.71167 1.101074,-2.04101 0,-1.36963 -1.127929,-2.06787 -1.114502,-0.71167 -3.303223,-0.71167 l -2.067871,0 0,-3.33008 2.175293,0 q 1.947021,0 2.90039,-0.60425 0.95337,-0.61768 0.95337,-1.86646 0,-1.15478 -0.926514,-1.78588 -0.926514,-0.63111 -2.618408,-0.63111 -1.24878,0 -2.524414,0.28198 -1.275635,0.28199 -2.537842,0.83252 l 0,-3.78662 q 1.530762,-0.42968 3.034668,-0.64453 1.503906,-0.21484 2.954101,-0.21484 3.907471,0 5.841065,1.28906 1.947021,1.27564 1.947021,3.85376 0,1.75903 -0.926513,2.88696 -0.926514,1.11451 -2.739258,1.57105 z"
         style="font-style:normal;font-variant:normal;font-weight:bold;font-stretch:normal;font-size:27.5px;font-family:sans-serif;-inkscape-font-specification:'sans-serif Bold'"
         id="path5975" /></g></g></svg>