<?xml version="1.0" encoding="UTF-8" standalone="no"?>
<svg
   xmlns:dc="http://purl.org/dc/elements/1.1/"
   xmlns:cc="http://creativecommons.org/ns#"
   xmlns:rdf="http://www.w3.org/1999/02/22-rdf-syntax-ns#"
   xmlns:svg="http://www.w3.org/2000/svg"
   xmlns="http://www.w3.org/2000/svg"
   id="svg19322"
   xml:space="preserve"
   width="110"
   viewBox="0 0 110 157.08754"
   version="1.1"
   height="157.08754"><metadata
     id="metadata19388"><rdf:RDF><cc:Work
         rdf:about=""><dc:format>image/svg+xml</dc:format><dc:type
           rdf:resource="http://purl.org/dc/dcmitype/StillImage" /><dc:title></dc:title></cc:Work></rdf:RDF></metadata><defs
     id="defs19386" /><g
     id="g5066"><g
       transform="matrix(0.30039795,0,0,0.30039795,-21.902025,-2.5126104)"
       id="g11540"><g
         id="形状_1_9_"
         style="enable-background:new"
         transform="translate(0,-73.762712)"><g
           id="形状_1-3"><g
             id="g10966"><polygon
               points="389.249,449.489 418.938,116.909 93.063,116.909 122.719,449.542 255.8,486.486 "
               style="clip-rule:evenodd;fill:#e44d26;fill-rule:evenodd"
               id="polygon10968" /></g></g></g><g
         id="形状_1_8_"
         style="enable-background:new"
         transform="translate(0,-73.762712)"><g
           id="形状_1_1_-6"><g
             id="g10972"><path
               d="m 256,184.903 -102.298,0 0.977,10.945 10.027,112.422 91.294,0 0,-40.795 -53.984,0 -3.729,-41.775 57.713,0 0,-40.797 z m -45.614,176.303 -2.905,-32.536 -40.953,0 5.716,64.056 83.568,23.198 0.188,-0.052 0,-42.445 -0.179,0.048 -45.435,-12.269 z"
               style="clip-rule:evenodd;fill:#ebebeb;fill-rule:evenodd"
               id="path10974" /></g></g></g><g
         id="形状_1_7_"
         style="enable-background:new"
         transform="translate(0,-73.762712)"><g
           id="形状_1_2_"><g
             id="g10978"><polygon
               points="389.203,144.106 256,144.106 256,458.208 363.832,428.313 "
               style="clip-rule:evenodd;fill:#f16529;fill-rule:evenodd"
               id="polygon10980" /></g></g></g><g
         id="形状_1_6_"
         style="enable-background:new"
         transform="translate(0,-73.762712)"><g
           id="形状_1_3_"><g
             id="g10984"><path
               d="m 255.858,308.271 50.236,0 -4.736,52.91 -45.5,12.281 0,42.442 83.634,-23.179 0.614,-6.892 9.587,-107.403 0.995,-10.955 -94.83,0 0,40.796 z m 0,-123.368 0,40.797 98.542,0 0.818,-9.17 1.859,-20.682 0.975,-10.945 -102.194,0 z"
               style="clip-rule:evenodd;fill:#ffffff;fill-rule:evenodd"
               id="path10986" /></g></g></g></g><g
       style="font-style:normal;font-variant:normal;font-weight:bold;font-stretch:normal;font-size:27.5px;line-height:125%;font-family:sans-serif;-inkscape-font-specification:'sans-serif Bold';letter-spacing:-1px;word-spacing:0px;fill:#000000;fill-opacity:1;stroke:none;stroke-width:1px;stroke-linecap:butt;stroke-linejoin:miter;stroke-opacity:1"
       id="text5051"><path
         d="m 6.3103027,126.20209 5.1696773,0 0,7.64038 7.626954,0 0,-7.64038 5.169677,0 0,20.0476 -5.169677,0 0,-8.49975 -7.626954,0 0,8.49975 -5.1696773,0 0,-20.0476 z"
         style=""
         id="path5056" /><path
         d="m 25.962158,126.20209 18.476563,0 0,3.90747 -6.646729,0 0,16.14013 -5.169678,0 0,-16.14013 -6.660156,0 0,-3.90747 z"
         style=""
         id="path5058" /><path
         d="m 46.097412,126.20209 6.57959,0 4.56543,10.72876 4.592285,-10.72876 6.566162,0 0,20.0476 -4.887695,0 0,-14.66308 -4.619141,10.80933 -3.276367,0 -4.619141,-10.80933 0,14.66308 -4.901123,0 0,-20.0476 z"
         style=""
         id="path5060" /><path
         d="m 72.48999,126.20209 5.169678,0 0,16.14013 9.077148,0 0,3.90747 -14.246826,0 0,-20.0476 z"
         style=""
         id="path5062" /><path
         d="m 89.38916,126.20209 12.85034,0 0,3.80005 -8.728025,0 0,3.1018 q 0.59082,-0.16113 1.18164,-0.2417 0.604248,-0.094 1.24878,-0.094 3.665771,0 5.706785,1.8396 2.04102,1.82617 2.04102,5.10254 0,3.24951 -2.22901,5.08911 -2.215573,1.8396 -6.163327,1.8396 -1.705322,0 -3.383789,-0.33569 -1.665039,-0.32227 -3.31665,-0.99366 l 0,-4.0686 q 1.638183,0.93994 3.101806,1.40991 1.477051,0.46997 2.779541,0.46997 1.879883,0 2.954102,-0.91308 1.087647,-0.92652 1.087647,-2.49756 0,-1.58447 -1.087647,-2.49756 -1.074219,-0.91309 -2.954102,-0.91309 -1.114501,0 -2.376709,0.29541 -1.262207,0.28199 -2.712402,0.88623 l 0,-11.27929 z"
         style=""
         id="path5064" /></g></g></svg>