<?xml version="1.0" encoding="UTF-8" standalone="no"?>
<svg
   xmlns:dc="http://purl.org/dc/elements/1.1/"
   xmlns:cc="http://creativecommons.org/ns#"
   xmlns:rdf="http://www.w3.org/1999/02/22-rdf-syntax-ns#"
   xmlns:svg="http://www.w3.org/2000/svg"
   xmlns="http://www.w3.org/2000/svg"
   xmlns:xlink="http://www.w3.org/1999/xlink"
   xmlns:sodipodi="http://sodipodi.sourceforge.net/DTD/sodipodi-0.dtd"
   xmlns:inkscape="http://www.inkscape.org/namespaces/inkscape"
   viewBox="0 0 198.59654 34.875821"
   id="svg2"
   version="1.1"
   inkscape:version="0.91 r13725"
   sodipodi:docname="logo.svg"
   width="198.59654"
   height="34.87582">
  <metadata
     id="metadata29">
    <rdf:RDF>
      <cc:Work
         rdf:about="">
        <dc:format>image/svg+xml</dc:format>
        <dc:type
           rdf:resource="http://purl.org/dc/dcmitype/StillImage" />
        <dc:title>Logo</dc:title>
      </cc:Work>
    </rdf:RDF>
  </metadata>
  <sodipodi:namedview
     pagecolor="#ffffff"
     bordercolor="#666666"
     borderopacity="1"
     objecttolerance="10"
     gridtolerance="10"
     guidetolerance="10"
     inkscape:pageopacity="0"
     inkscape:pageshadow="2"
     inkscape:window-width="1795"
     inkscape:window-height="502"
     id="namedview27"
     showgrid="false"
     inkscape:zoom="2.440367"
     inkscape:cx="-14.6484"
     inkscape:cy="45.116723"
     inkscape:window-x="0"
     inkscape:window-y="0"
     inkscape:window-maximized="0"
     inkscape:current-layer="svg2"
     fit-margin-top="0.3"
     fit-margin-right="0.3"
     fit-margin-bottom="0.3"
     fit-margin-left="0.3" />
  <title
     id="title4">Logo</title>
  <defs
     id="defs20">
    <path
       id="b"
       d="M 22.735,23.171 C 23.018,23.494 22.788,24 22.359,24 l -5.907,0 c -0.285,0 -0.556,-0.121 -0.745,-0.333 l -9.414,-10.526 0,10.36 c 0,0.276 -0.224,0.5 -0.5,0.5 l -5.293,0 c -0.276,0 -0.5,-0.224 -0.5,-0.5 l 0,-23 c 0,-0.276 0.224,-0.5 0.5,-0.5 l 5.293,0 c 0.276,0 0.5,0.224 0.5,0.5 l 0,9.815 9.141,-9.99 c 0.19,-0.207 0.457,-0.325 0.738,-0.325 l 5.762,0 c 0.437,0 0.664,0.521 0.366,0.841 l -9.851,10.563 10.287,11.767 z"
       inkscape:connector-curvature="0" />
    <path
       id="c"
       d="m 45.991,24 c -0.199,0 -0.38,-0.118 -0.459,-0.301 l -2.024,-4.669 -10.67,0 -2.024,4.669 C 30.735,23.882 30.555,24 30.355,24 l -5.212,0 c -0.366,0 -0.608,-0.381 -0.453,-0.712 l 10.782,-23 C 35.554,0.112 35.731,0 35.925,0 l 4.358,0 c 0.194,0 0.37,0.112 0.453,0.287 l 10.815,23 C 51.707,23.619 51.465,24 51.099,24 l -5.108,0 z m -11.135,-9.668 6.635,0 -3.317,-7.694 -3.317,7.694 z"
       inkscape:connector-curvature="0" />
    <path
       id="d"
       d="m 55.525,24 c -0.276,0 -0.5,-0.224 -0.5,-0.5 l 0,-23 c 0,-0.276 0.224,-0.5 0.5,-0.5 l 5.293,0 c 0.276,0 0.5,0.224 0.5,0.5 l 0,18.428 9.759,0 c 0.276,0 0.5,0.224 0.5,0.5 l 0,4.072 c 0,0.276 -0.224,0.5 -0.5,0.5 l -15.552,0 z"
       inkscape:connector-curvature="0" />
    <path
       id="e"
       d="m 75.279,0.5 c 0,-0.276 0.224,-0.5 0.5,-0.5 l 9.315,0 c 2.667,0 4.959,0.477 6.874,1.43 1.938,0.953 3.42,2.338 4.446,4.153 1.026,1.793 1.539,3.926 1.539,6.4 0,2.496 -0.513,4.652 -1.539,6.468 -1.003,1.793 -2.474,3.166 -4.412,4.119 C 90.087,23.523 87.784,24 85.094,24 l -9.315,0 c -0.276,0 -0.5,-0.224 -0.5,-0.5 l 0,-23 z m 9.37,18.462 c 2.371,0 4.138,-0.579 5.301,-1.736 1.163,-1.157 1.744,-2.905 1.744,-5.242 C 91.694,9.646 91.113,7.91 89.95,6.775 88.787,5.618 87.02,5.039 84.649,5.039 l -3.078,0 0,13.923 3.078,0 z"
       inkscape:connector-curvature="0" />
    <path
       id="f"
       d="m 102.913,24 c -0.276,0 -0.5,-0.224 -0.5,-0.5 l 0,-23 c 0,-0.276 0.224,-0.5 0.5,-0.5 l 5.293,0 c 0.276,0 0.5,0.224 0.5,0.5 l 0,23 c 0,0.276 -0.224,0.5 -0.5,0.5 l -5.293,0 z"
       inkscape:connector-curvature="0" />
    <linearGradient
       id="linearGradient5269">
      <stop
         style="stop-color:#000000;stop-opacity:1"
         offset="0"
         id="stop5271" />
      <stop
         id="stop5277"
         offset="0.04066001"
         style="stop-color:#666666;stop-opacity:1" />
      <stop
         style="stop-color:#676767;stop-opacity:1;"
         offset="0.10719132"
         id="stop5279" />
      <stop
         style="stop-color:#808080;stop-opacity:1"
         offset="1"
         id="stop5273" />
    </linearGradient>
    <linearGradient
       xlink:href="#linearGradient5269"
       id="linearGradient5378"
       gradientUnits="userSpaceOnUse"
       x1="127.56405"
       y1="257.33017"
       x2="864.56403"
       y2="257.33017" />
    <filter
       style="color-interpolation-filters:sRGB"
       id="filter6214">
      <feFlood
         flood-opacity="0.498039"
         flood-color="rgb(0,0,0)"
         result="flood"
         id="feFlood6216" />
      <feComposite
         in="flood"
         in2="SourceGraphic"
         operator="out"
         result="composite1"
         id="feComposite6218" />
      <feGaussianBlur
         in="composite1"
         stdDeviation="1"
         result="blur"
         id="feGaussianBlur6220" />
      <feOffset
         dx="3.4"
         dy="2.5"
         result="offset"
         id="feOffset6222" />
      <feComposite
         in="offset"
         in2="SourceGraphic"
         operator="atop"
         result="composite2"
         id="feComposite6224" />
    </filter>
    <filter
       id="filter11252"
       inkscape:label="Drop Shadow"
       style="color-interpolation-filters:sRGB">
      <feFlood
         id="feFlood11254"
         result="flood"
         flood-color="rgb(0,0,0)"
         flood-opacity="0.498039" />
      <feComposite
         id="feComposite11256"
         result="composite1"
         operator="in"
         in2="SourceGraphic"
         in="flood" />
      <feGaussianBlur
         id="feGaussianBlur11258"
         result="blur"
         stdDeviation="3"
         in="composite1" />
      <feOffset
         id="feOffset11260"
         result="offset"
         dy="3"
         dx="3" />
      <feComposite
         id="feComposite11262"
         result="composite2"
         operator="over"
         in2="offset"
         in="SourceGraphic" />
    </filter>
  </defs>
  <g
     style="font-style:normal;font-variant:normal;font-weight:normal;font-stretch:normal;font-size:medium;line-height:100%;font-family:'DejaVu Serif';-inkscape-font-specification:'DejaVu Serif';text-align:justify;letter-spacing:0px;word-spacing:0px;writing-mode:lr-tb;text-anchor:start;fill:#000000;fill-opacity:1;stroke:none;stroke-width:1px;stroke-linecap:butt;stroke-linejoin:miter;stroke-opacity:1"
     id="g4480"
     transform="translate(-413.70517,-136.87864)" />
  <g
     style="font-style:normal;font-variant:normal;font-weight:normal;font-stretch:normal;font-size:medium;line-height:100%;font-family:'DejaVu Serif';-inkscape-font-specification:'DejaVu Serif';text-align:justify;letter-spacing:0px;word-spacing:0px;writing-mode:lr-tb;text-anchor:start;fill:#000000;fill-opacity:1;stroke:none;stroke-width:1px;stroke-linecap:butt;stroke-linejoin:miter;stroke-opacity:1"
     transform="translate(-390.68173,-150.89036)"
     id="g5454" />
  <g
     transform="translate(-546.10573,-154.11266)"
     id="text5151"
     style="font-style:normal;font-variant:normal;font-weight:normal;font-stretch:normal;font-size:15.15018559px;line-height:100%;font-family:Arial;-inkscape-font-specification:'Arial, Normal';text-align:justify;letter-spacing:0px;word-spacing:0px;writing-mode:lr-tb;text-anchor:start;fill:url(#linearGradient5378);fill-opacity:1;stroke:none;stroke-width:1px;stroke-linecap:butt;stroke-linejoin:miter;stroke-opacity:1" />
  <path
     id="path4757"
     d="m 262.73777,44.830386 c 1.30078,0 1.30859,0 1.30859,0 l -0.008,-0.004 0,0.0117"
     style="font-style:normal;font-variant:normal;font-weight:normal;font-stretch:normal;font-size:medium;line-height:100%;font-family:'DejaVu Serif';-inkscape-font-specification:'DejaVu Serif';text-align:justify;letter-spacing:0px;word-spacing:0px;writing-mode:lr-tb;text-anchor:start;fill:none;fill-opacity:1;fill-rule:evenodd;stroke:none;stroke-width:1px;stroke-linecap:butt;stroke-linejoin:miter;stroke-opacity:1"
     inkscape:connector-curvature="0" />
  <path
     style="font-style:normal;font-variant:normal;font-weight:normal;font-stretch:normal;font-size:180px;line-height:100%;font-family:'DejaVu Serif';-inkscape-font-specification:'DejaVu Serif';text-align:justify;letter-spacing:0px;word-spacing:0px;writing-mode:lr-tb;text-anchor:start;fill:#484537;fill-opacity:1;stroke:none;stroke-width:1px;stroke-linecap:butt;stroke-linejoin:miter;stroke-opacity:1"
     d="M 21.187263,0.3000182 C 4.0497925,0.3789728 0.3165438,8.5474543 0.30096941,15.625399 0.23210628,23.35184 3.8005428,30.919608 21.106053,30.554013 l 13.110296,-0.01779 1.309405,0.0031 2.357396,3.957606 15.259637,0.07889 142.932473,0 0,-1.176377 -155.021852,0 -1.480332,-2.851611 2.818355,0.0062 0,0.01315 155.905109,0 0,-2.358167 -8.49992,0 0,-7.05594 c 0,-1.619595 -0.32806,-2.84421 -0.9838,-3.67376 -0.64784,-0.837444 -1.60825,-1.256039 -2.88023,-1.256039 -0.88485,0 -1.61884,0.165494 -2.20348,0.497311 -0.58464,0.331822 -1.10194,0.872868 -1.55226,1.623415 l 0,-1.777327 -5.39231,0 0,1.433927 1.61104,0 0,10.208413 -5.43252,0 c 0.17986,-0.144096 0.35263,-0.299043 0.5151,-0.467148 1.13766,-1.185066 1.70694,-2.812702 1.70694,-4.88262 0,-2.077824 -0.56928,-3.700981 -1.70694,-4.870247 -1.12976,-1.17717 -2.69432,-1.765724 -4.69313,-1.765724 -1.99882,0 -3.56708,0.588554 -4.70474,1.765724 -1.12976,1.169266 -1.69457,2.792423 -1.69457,4.870247 0,2.069918 0.56481,3.697554 1.69457,4.88262 0.16244,0.168081 0.33511,0.32307 0.5151,0.467148 l -8.48986,0 0,-5.456501 c 0,-1.429983 0.23597,-2.546941 0.71,-3.35279 0.47403,-0.805845 1.12274,-1.209633 1.94438,-1.209633 0.54514,0 0.96003,0.166265 1.24444,0.498084 0.28442,0.32392 0.44621,0.821167 0.48571,1.492707 l 1.20886,0 0,-3.755743 c -0.41082,-0.0632 -0.77451,-0.111482 -1.09052,-0.143083 -0.31603,-0.0395 -0.58469,-0.05878 -0.80591,-0.05878 -0.88485,0 -1.6315,0.212997 -2.23984,0.63962 -0.60833,0.418725 -1.0937,1.066663 -1.45712,1.943613 l 0,-2.239834 -5.51142,0 0,1.433927 1.73092,0 0,10.208413 -4.50441,0 0,-6.783695 c 0,-1.793401 -0.46902,-3.108556 -1.40918,-3.946005 -0.94015,-0.837444 -2.42604,-1.256039 -4.45646,-1.256039 -0.80585,0 -1.57178,0.06756 -2.29862,0.201863 -0.71894,0.134308 -1.41808,0.33543 -2.09752,0.604043 l 0,2.713942 1.20886,0 c 0.17381,-0.782145 0.46176,-1.343248 0.86469,-1.682968 0.41082,-0.34762 0.99568,-0.521287 1.75412,-0.521287 0.90856,0 1.58024,0.244151 2.01477,0.733978 0.43452,0.481931 0.65122,1.233051 0.65122,2.252208 l 0,0.746354 -1.99079,0 c -1.79341,0 -3.13679,0.351034 -4.02954,1.054175 -0.89275,0.703139 -1.33879,1.762264 -1.33879,3.17645 0,1.130706 0.23801,2.033084 0.71309,2.706981 l -5.03962,0 c 0.012,-0.0097 0.0252,-0.01887 0.0371,-0.02862 1.09027,-0.884852 1.84432,-2.240107 2.26304,-4.065112 l -2.12073,0 c -0.30022,1.327279 -0.78636,2.318849 -1.4579,2.974585 -0.67154,0.65574 -1.54065,0.983795 -2.60721,0.983795 -1.5643,0 -2.72136,-0.631587 -3.4719,-1.895661 -0.75054,-1.264076 -1.1261,-3.212361 -1.1261,-5.843212 0,-2.630856 0.37556,-4.577592 1.1261,-5.841665 0.75054,-1.271972 1.90313,-1.908035 3.45952,-1.908035 1.20087,0 2.16499,0.371087 2.89184,1.113729 0.73474,0.734743 1.24093,1.84507 1.51745,3.33036 l 1.3504,0 0,-4.349732 c -1.13767,-0.513529 -2.21977,-0.896488 -3.24684,-1.149307 -1.02705,-0.252812 -2.01122,-0.378977 -2.95138,-0.378977 -2.69405,0 -4.82341,0.825307 -6.3877,2.476502 -1.55639,1.643294 -2.33342,3.878761 -2.33342,6.707125 0,2.820463 0.77703,5.056706 2.33342,6.7079 0.42962,0.451322 0.90439,0.838954 1.41923,1.166322 l -17.63018,0 0,-5.456501 c 0,-1.429983 0.23675,-2.546941 0.71078,-3.35279 0.47403,-0.805845 1.12196,-1.209633 1.94361,-1.209633 0.54513,0 0.96002,0.166265 1.24444,0.498084 0.28442,0.32392 0.44621,0.821167 0.48571,1.492707 l 1.20809,0 0,-3.755743 c -0.41083,-0.0632 -0.77297,-0.111482 -1.08898,-0.143083 -0.31602,-0.0395 -0.58547,-0.05878 -0.80669,-0.05878 -0.88485,0 -1.63072,0.212998 -2.23906,0.639621 -0.60833,0.418725 -1.09448,1.066663 -1.4579,1.943613 l 0,-2.239834 -5.510644,0 0,1.433927 1.729374,0 0,10.208413 -5.098406,0 c 0.72262,-0.66953 1.218236,-1.622982 1.484973,-2.860893 l -1.778098,0 c -0.142209,0.916454 -0.465791,1.615596 -0.971422,2.097524 -0.505631,0.481928 -1.165438,0.722377 -1.979187,0.722377 -0.979654,0 -1.690671,-0.359209 -2.133102,-1.078152 -0.442422,-0.726838 -0.663596,-1.903956 -0.663596,-3.53145 l 0,-0.09513 7.79765,0 c -0.0632,-2.370139 -0.596852,-4.166963 -1.60021,-5.391533 -1.003363,-1.232472 -2.440202,-1.848481 -4.31261,-1.848481 -1.919812,0 -3.417575,0.584857 -4.492042,1.754123 -1.066559,1.169269 -1.60021,2.796125 -1.60021,4.881848 0,2.133121 0.521771,3.776331 1.564634,4.929799 0.137283,0.149672 0.282509,0.289851 0.435437,0.419969 l -5.103818,0 0,-11.64234 -5.39308,0 0,1.433927 1.611813,0 0,10.208413 -4.526846,0 0,-7.05594 c 0,-1.619595 -0.32806,-2.84421 -0.983796,-3.67376 -0.64784,-0.837444 -1.607481,-1.256039 -2.879453,-1.256039 -0.88485,0 -1.619618,0.165494 -2.204258,0.497311 -0.584631,0.331822 -1.101932,0.872868 -1.552259,1.623415 l 0,-1.777327 -5.392306,0 0,1.433927 1.611811,0 0,10.208413 -4.56242,0 0,-11.64234 -5.392307,0 0,1.433927 1.611812,0 0,10.208413 -5.099177,0 c 0.722619,-0.66953 1.217467,-1.622982 1.4842,-2.860893 l -1.777326,0 c -0.142213,0.916454 -0.46579,1.615596 -0.971422,2.097524 -0.505627,0.481928 -1.165438,0.722377 -1.979187,0.722377 -0.979658,0 -1.690675,-0.359209 -2.133101,-1.078152 -0.442427,-0.726838 -0.663597,-1.903956 -0.663597,-3.53145 l 0,-0.09513 7.79765,0 c -0.0632,-2.370163 -0.59608,-4.166987 -1.599438,-5.391557 -1.003358,-1.232472 -2.441742,-1.848481 -4.314154,-1.848481 -1.919812,0 -3.416807,0.584857 -4.49127,1.754123 -1.066563,1.169269 -1.60021,2.796125 -1.60021,4.881848 0,2.133121 0.521772,3.776331 1.564634,4.929799 0.137148,0.149525 0.282676,0.289187 0.435438,0.419195 l -2.969173,0 -4.311058,-8.800782 c -0.529751,-1.085984 -1.13206,-1.926939 -1.807492,-2.522906 -0.662183,-0.609212 -1.457396,-1.039989 -2.384462,-1.291617 2.264678,-0.291362 3.967177,-1.019472 5.106139,-2.184921 1.1522,-1.178689 1.728599,-2.788176 1.728599,-4.8277073 0,-2.5295529 -0.78835,-4.4828815 -2.364353,-5.8602275 C 33.237526,1.34271 30.998603,0.9399503 28.125641,0.6542463 25.598796,0.4029612 23.291861,0.2910972 21.187263,0.3007919 l 0,-7.919e-4 z m -0.29313,2.4803682 5.861001,0 c 1.999802,0 3.475849,0.4696461 4.429396,1.4099505 0.95355,0.9403045 1.43006,2.4033905 1.43006,4.3899503 0,1.9865538 -0.47651,3.4572838 -1.43006,4.4108328 -0.953547,0.940302 -2.429594,1.410724 -4.429396,1.410724 l -5.861001,0 0,-11.6214576 z m -3.619618,0.05646 -0.413009,25.3713746 C 0.33328637,28.123107 0.92925931,2.8738961 17.274515,2.8368467 Z m 39.580703,7.8873696 c -0.576731,0 -1.066578,0.221172 -1.469505,0.663597 -0.395026,0.434526 -0.59244,0.971878 -0.59244,1.611814 0,0.632037 0.197414,1.164913 0.59244,1.599439 0.402927,0.434526 0.892774,0.651996 1.469505,0.651996 0.560932,0 1.038903,-0.21747 1.433925,-0.651996 0.395027,-0.442424 0.593217,-0.975301 0.593217,-1.599439 0,-0.639936 -0.19819,-1.177288 -0.593217,-1.611814 -0.395022,-0.442424 -0.872993,-0.663597 -1.433925,-0.663597 z m 24.27079,0 c -0.576732,0 -1.067347,0.221172 -1.470277,0.663597 -0.395023,0.434526 -0.592441,0.971878 -0.592441,1.611814 0,0.632037 0.197418,1.164913 0.592441,1.599439 0.40293,0.434526 0.893545,0.651996 1.470277,0.651996 0.560931,0 1.038134,-0.21747 1.433157,-0.651996 0.395022,-0.442424 0.59244,-0.975301 0.59244,-1.599439 0,-0.639936 -0.197418,-1.177288 -0.59244,-1.611814 -0.395023,-0.442424 -0.872226,-0.663597 -1.433157,-0.663597 z m -60.231875,5.802221 4.430168,0 c 1.297886,0 2.317243,0.272192 3.058889,0.815188 0.741651,0.529749 1.556687,1.708459 2.44402,3.536091 l 3.442507,7.327411 -9.183629,0.0031 -4.191955,0 0,-11.681011 0,-7.92e-4 z m 24.928203,1.035613 c 0.671536,0 1.145808,0.335454 1.422326,1.006997 0.276514,0.663636 0.414553,1.825176 0.414553,3.484272 l -3.649781,0 0,-0.213465 c 0,-1.540585 0.138035,-2.63827 0.414553,-3.294009 0.284413,-0.655733 0.750509,-0.983795 1.398349,-0.983795 z m 46.50284,0 c 0.67154,0 1.145036,0.335454 1.421554,1.006997 0.276514,0.663636 0.415329,1.825176 0.415329,3.484272 l -3.650557,0 0,-0.213465 c 0,-1.540585 0.138039,-2.63827 0.414552,-3.294009 0.284422,-0.655733 0.751286,-0.983795 1.399122,-0.983795 z m 76.459854,0 c 0.79794,0 1.35535,0.379263 1.67136,1.137706 0.32393,0.750544 0.48571,2.136951 0.48571,4.15947 0,2.022513 -0.16178,3.412625 -0.48571,4.171071 -0.32391,0.75844 -0.88132,1.137706 -1.67136,1.137706 -0.80585,0 -1.37435,-0.382189 -1.70617,-1.148534 -0.32392,-0.766344 -0.48649,-2.153531 -0.48649,-4.160243 0,-2.006718 0.16257,-3.388649 0.48649,-4.147095 0.33182,-0.766342 0.90032,-1.150081 1.70617,-1.150081 z m -99.308319,0.62802 c 0.600436,0 1.022723,0.209295 1.26764,0.62802 0.244914,0.410826 0.367374,1.149292 0.367374,2.215857 l 0,7.174274 -3.839271,0 0,-6.131699 c 0,-1.350976 0.178141,-2.333601 0.533663,-2.949836 0.355518,-0.624138 0.912149,-0.936616 1.670594,-0.936616 z m 114.903619,0 c 0.60044,0 1.0235,0.209295 1.26842,0.62802 0.24491,0.410826 0.36737,1.149292 0.36737,2.215857 l 0,7.174274 -3.83927,0 0,-6.131699 c 0,-1.350976 0.17737,-2.333601 0.53289,-2.949836 0.35552,-0.624138 0.91215,-0.936616 1.67059,-0.936616 z m -41.74938,4.491269 1.42155,0 0,2.524453 c 0,0.703142 -0.17737,1.267946 -0.53289,1.69457 -0.35552,0.42663 -0.82609,0.640395 -1.41072,0.640395 -0.56094,0 -0.97875,-0.198194 -1.25527,-0.593216 -0.27652,-0.395025 -0.41533,-0.991755 -0.41533,-1.789701 0,-0.797947 0.18924,-1.409477 0.56847,-1.836107 0.37922,-0.426624 0.92105,-0.640394 1.62419,-0.640394 z"
     id="path4141-0"
     inkscape:connector-curvature="0" />
</svg>
