<?xml version="1.0" encoding="UTF-8" standalone="no"?>
<svg
   xmlns:dc="http://purl.org/dc/elements/1.1/"
   xmlns:cc="http://creativecommons.org/ns#"
   xmlns:rdf="http://www.w3.org/1999/02/22-rdf-syntax-ns#"
   xmlns:svg="http://www.w3.org/2000/svg"
   xmlns="http://www.w3.org/2000/svg"
   xmlns:sodipodi="http://sodipodi.sourceforge.net/DTD/sodipodi-0.dtd"
   xmlns:inkscape="http://www.inkscape.org/namespaces/inkscape"
   id="svg19322"
   xml:space="preserve"
   width="110"
   viewBox="0 0 110 157.08754"
   version="1.1"
   height="157.08754"
   inkscape:version="0.91 r13725"
   sodipodi:docname="PHP-sm-rc.svg"><sodipodi:namedview
     pagecolor="#ffffff"
     bordercolor="#666666"
     borderopacity="1"
     objecttolerance="10"
     gridtolerance="10"
     guidetolerance="10"
     inkscape:pageopacity="0"
     inkscape:pageshadow="2"
     inkscape:window-width="1920"
     inkscape:window-height="1027"
     id="namedview4158"
     showgrid="false"
     inkscape:zoom="5.3664345"
     inkscape:cx="28.446056"
     inkscape:cy="78.54377"
     inkscape:window-x="0"
     inkscape:window-y="0"
     inkscape:window-maximized="1"
     inkscape:current-layer="svg19322" /><metadata
     id="metadata19388"><rdf:RDF><cc:Work
         rdf:about=""><dc:format>image/svg+xml</dc:format><dc:type
           rdf:resource="http://purl.org/dc/dcmitype/StillImage" /><dc:title /></cc:Work></rdf:RDF></metadata><defs
     id="defs19386" /><g
     id="text5935"
     style="font-style:normal;font-variant:normal;font-weight:bold;font-stretch:normal;font-size:27.5px;line-height:125%;font-family:sans-serif;-inkscape-font-specification:'sans-serif Bold';letter-spacing:0px;word-spacing:0px;fill:#000000;fill-opacity:1;stroke:none;stroke-width:1px;stroke-linecap:butt;stroke-linejoin:miter;stroke-opacity:1"><path
       inkscape:connector-curvature="0"
       id="path5997"
       d="m 26.87561,125.09982 8.580323,0 q 3.826904,0 5.86792,1.70533 2.054443,1.69189 2.054443,4.83398 0,3.15552 -2.054443,4.86084 -2.041016,1.69189 -5.86792,1.69189 l -3.410645,0 0,6.95557 -5.169678,0 0,-20.04761 z m 5.169678,3.74634 0,5.59937 2.860108,0 q 1.503906,0 2.322998,-0.7251 0.819091,-0.73853 0.819091,-2.0813 0,-1.34277 -0.819091,-2.06787 -0.819092,-0.7251 -2.322998,-0.7251 l -2.860108,0 z" /><path
       inkscape:connector-curvature="0"
       id="path5999"
       d="m 61.921997,135.98972 0,9.15771 -4.833984,0 0,-1.49048 0,-5.49194 q 0,-1.97388 -0.09399,-2.7124 -0.08057,-0.73853 -0.295411,-1.08765 -0.281982,-0.46997 -0.76538,-0.7251 -0.483399,-0.26855 -1.101075,-0.26855 -1.503906,0 -2.363281,1.16821 -0.859375,1.15479 -0.859375,3.20923 l 0,7.39868 -4.807129,0 0,-20.89355 4.807129,0 0,8.05664 q 1.087647,-1.31592 2.30957,-1.9336 1.221924,-0.6311 2.698975,-0.6311 2.60498,0 3.947754,1.5979 1.356201,1.5979 1.356201,4.646 z" /><path
       inkscape:connector-curvature="0"
       id="path6001"
       d="m 66.621704,125.09982 8.580322,0 q 3.826905,0 5.86792,1.70533 2.054444,1.69189 2.054444,4.83398 0,3.15552 -2.054444,4.86084 -2.041015,1.69189 -5.86792,1.69189 l -3.410644,0 0,6.95557 -5.169678,0 0,-20.04761 z m 5.169678,3.74634 0,5.59937 2.860107,0 q 1.503907,0 2.322998,-0.7251 0.819092,-0.73853 0.819092,-2.0813 0,-1.34277 -0.819092,-2.06787 -0.819091,-0.7251 -2.322998,-0.7251 l -2.860107,0 z" /></g><g
     transform="matrix(0.29791719,0,0,0.30014555,-21.266801,-24.689596)"
     id="形状_1-7"
     style="fill:#006b00;fill-opacity:1"><g
       id="g19326"
       style="fill:#006b00;fill-opacity:1"><polygon
         points="420.191,117.07 91.809,117.07 122.593,450.579 255.999,486.501 389.402,450.579 "
         style="clip-rule:evenodd;fill:#006b00;fill-opacity:1;fill-rule:evenodd"
         id="polygon19328" /></g></g><g
     transform="matrix(0.29791719,0,0,0.30014555,-21.266801,-24.689596)"
     id="形状_1_1_-0"
     style="fill:#8dd35f"><g
       id="g19332"
       style="fill:#8dd35f"><polygon
         points="389.175,144.084 255.997,144.084 255.997,457.852 256.298,457.933 364.257,428.863 "
         style="clip-rule:evenodd;fill:#8dd35f;fill-rule:evenodd"
         id="polygon19334" /></g></g><path
     d="m 25.842594,31.507525 31.583365,-0.207556 c 7.977098,-0.05242 15.135804,0.144806 19.770191,3.115547 4.658982,2.940437 6.741851,7.547407 6.997879,13.938445 0.195827,4.888263 -1.536246,9.482298 -5.382551,13.409458 -3.821715,3.896868 -8.717526,5.007889 -16.687742,5.335865 L 40.632598,67.535218 42.752953,95.928772 31.60383,92.74402 Z m 12.6459,10.856485 1.106002,13.997491 20.406631,-0.05674 c 3.134639,-0.0087 4.500965,-0.60998 6.02365,-2.267077 1.51948,-1.684248 1.721602,-2.943703 1.611046,-4.548296 -0.154401,-2.240955 -1.230274,-4.708961 -3.099883,-5.983494 -1.869598,-1.274532 -4.342021,-1.470726 -7.475732,-1.384979 z"
     style="font-style:normal;font-variant:normal;font-weight:bold;font-stretch:normal;font-size:60px;line-height:125%;font-family:sans-serif;-inkscape-font-specification:'sans-serif Bold';letter-spacing:0px;word-spacing:0px;opacity:0.7;fill:#fbfbfa;fill-opacity:1;stroke:#dadada;stroke-width:1.04052138px;stroke-linecap:butt;stroke-linejoin:miter;stroke-opacity:1"
     id="path23644-3"
     inkscape:connector-curvature="0"
     sodipodi:nodetypes="cscsccccccccscascc" /><path
     id="path6177"
     d="M 15.548238,18.734577 87.228249,104.11812"
     style="fill:none;fill-rule:evenodd;stroke:none;stroke-width:1px;stroke-linecap:butt;stroke-linejoin:miter;stroke-opacity:1"
     inkscape:connector-curvature="0" /></svg>