<?xml version="1.0" encoding="UTF-8" standalone="no"?>
<svg
   xmlns:dc="http://purl.org/dc/elements/1.1/"
   xmlns:cc="http://creativecommons.org/ns#"
   xmlns:rdf="http://www.w3.org/1999/02/22-rdf-syntax-ns#"
   xmlns:svg="http://www.w3.org/2000/svg"
   xmlns="http://www.w3.org/2000/svg"
   height="157.08754"
   version="1.1"
   viewBox="0 0 110 157.08754"
   width="110"
   xml:space="preserve"
   id="svg19322"><metadata
     id="metadata19388"><rdf:RDF><cc:Work
         rdf:about=""><dc:format>image/svg+xml</dc:format><dc:type
           rdf:resource="http://purl.org/dc/dcmitype/StillImage" /><dc:title></dc:title></cc:Work></rdf:RDF></metadata><defs
     id="defs19386"><filter
       style="color-interpolation-filters:sRGB"
       id="filter6214"><feFlood
         flood-opacity="0.498039"
         flood-color="rgb(0,0,0)"
         result="flood"
         id="feFlood6216" /><feComposite
         in="flood"
         in2="SourceGraphic"
         operator="out"
         result="composite1"
         id="feComposite6218" /><feGaussianBlur
         in="composite1"
         stdDeviation="1"
         result="blur"
         id="feGaussianBlur6220" /><feOffset
         dx="3.4"
         dy="2.5"
         result="offset"
         id="feOffset6222" /><feComposite
         in="offset"
         in2="SourceGraphic"
         operator="atop"
         result="composite2"
         id="feComposite6224" /></filter></defs><g
     transform="matrix(0.30039795,0,0,0.30039795,-21.902025,-24.670778)"
     style="enable-background:new"
     id="形状_1_9_"><g
       id="形状_1-3"><g
         id="g10966"><polygon
           id="polygon10968"
           style="clip-rule:evenodd;fill:#4d4d4d;fill-rule:evenodd"
           points="255.8,486.486 389.249,449.489 418.938,116.909 93.063,116.909 122.719,449.542 " /></g></g></g><g
     transform="matrix(0.30039795,0,0,0.30039795,-21.902025,-24.670778)"
     style="enable-background:new"
     id="形状_1_7_"><g
       id="形状_1_2_"><g
         id="g10978"><polygon
           id="polygon10980"
           style="clip-rule:evenodd;fill:#808080;fill-rule:evenodd"
           points="389.203,144.106 256,144.106 256,458.208 363.832,428.313 " /></g></g></g><path
     id="path5056"
     d="m 6.3103027,126.20209 5.1696773,0 0,7.64038 7.626954,0 0,-7.64038 5.169677,0 0,20.0476 -5.169677,0 0,-8.49975 -7.626954,0 0,8.49975 -5.1696773,0 0,-20.0476 z"
     style="font-style:normal;font-variant:normal;font-weight:bold;font-stretch:normal;font-size:medium;line-height:125%;font-family:sans-serif;-inkscape-font-specification:'sans-serif Bold';letter-spacing:-1px;word-spacing:0px;fill:#000000;fill-opacity:1;stroke:none;stroke-width:1px;stroke-linecap:butt;stroke-linejoin:miter;stroke-opacity:1" /><path
     id="path5058"
     d="m 25.962158,126.20209 18.476563,0 0,3.90747 -6.646729,0 0,16.14013 -5.169678,0 0,-16.14013 -6.660156,0 0,-3.90747 z"
     style="font-style:normal;font-variant:normal;font-weight:bold;font-stretch:normal;font-size:medium;line-height:125%;font-family:sans-serif;-inkscape-font-specification:'sans-serif Bold';letter-spacing:-1px;word-spacing:0px;fill:#000000;fill-opacity:1;stroke:none;stroke-width:1px;stroke-linecap:butt;stroke-linejoin:miter;stroke-opacity:1" /><path
     id="path5060"
     d="m 46.097412,126.20209 6.57959,0 4.56543,10.72876 4.592285,-10.72876 6.566162,0 0,20.0476 -4.887695,0 0,-14.66308 -4.619141,10.80933 -3.276367,0 -4.619141,-10.80933 0,14.66308 -4.901123,0 0,-20.0476 z"
     style="font-style:normal;font-variant:normal;font-weight:bold;font-stretch:normal;font-size:medium;line-height:125%;font-family:sans-serif;-inkscape-font-specification:'sans-serif Bold';letter-spacing:-1px;word-spacing:0px;fill:#000000;fill-opacity:1;stroke:none;stroke-width:1px;stroke-linecap:butt;stroke-linejoin:miter;stroke-opacity:1" /><path
     id="path5062"
     d="m 72.48999,126.20209 5.169678,0 0,16.14013 9.077148,0 0,3.90747 -14.246826,0 0,-20.0476 z"
     style="font-style:normal;font-variant:normal;font-weight:bold;font-stretch:normal;font-size:medium;line-height:125%;font-family:sans-serif;-inkscape-font-specification:'sans-serif Bold';letter-spacing:-1px;word-spacing:0px;fill:#000000;fill-opacity:1;stroke:none;stroke-width:1px;stroke-linecap:butt;stroke-linejoin:miter;stroke-opacity:1" /><path
     id="path5064"
     d="m 89.38916,126.20209 12.85034,0 0,3.80005 -8.728025,0 0,3.1018 q 0.59082,-0.16113 1.18164,-0.2417 0.604248,-0.094 1.24878,-0.094 3.665771,0 5.706785,1.8396 2.04102,1.82617 2.04102,5.10254 0,3.24951 -2.22901,5.08911 -2.215573,1.8396 -6.163327,1.8396 -1.705322,0 -3.383789,-0.33569 -1.665039,-0.32227 -3.31665,-0.99366 l 0,-4.0686 q 1.638183,0.93994 3.101806,1.40991 1.477051,0.46997 2.779541,0.46997 1.879883,0 2.954102,-0.91308 1.087647,-0.92652 1.087647,-2.49756 0,-1.58447 -1.087647,-2.49756 -1.074219,-0.91309 -2.954102,-0.91309 -1.114501,0 -2.376709,0.29541 -1.262207,0.28199 -2.712402,0.88623 l 0,-11.27929 z"
     style="font-style:normal;font-variant:normal;font-weight:bold;font-stretch:normal;font-size:medium;line-height:125%;font-family:sans-serif;-inkscape-font-specification:'sans-serif Bold';letter-spacing:-1px;word-spacing:0px;fill:#000000;fill-opacity:1;stroke:none;stroke-width:1px;stroke-linecap:butt;stroke-linejoin:miter;stroke-opacity:1" /><path
     style="font-style:normal;font-variant:normal;font-weight:normal;font-stretch:normal;font-size:180px;line-height:100%;font-family:'DejaVu Serif';-inkscape-font-specification:'DejaVu Serif';text-align:justify;letter-spacing:0px;word-spacing:0px;writing-mode:lr-tb;text-anchor:start;fill:#ffffff;fill-opacity:1;stroke:#dadada;stroke-width:0.99816674px;stroke-linecap:butt;stroke-linejoin:miter;stroke-opacity:1"
     d="m 59.453286,31.128988 c -1.888455,-0.134256 -3.69066,-0.193423 -5.410382,-0.182265 l 0,-1.95e-4 C 26.03593,31.128264 19.934199,49.929199 19.908743,66.221152 19.796209,84.005808 25.627543,101.4253 53.90914,100.58377 l 21.426177,-0.041 2.140283,0.007 6.613776,0.0205 3.077791,0.0136 0.325504,-5.399601 -4.613026,0 -7.045127,-20.256598 c -0.865744,-2.499707 -1.850705,-4.436086 -2.954527,-5.80788 -1.082172,-1.402278 -2.380704,-2.393007 -3.895763,-2.972202 3.701063,-0.670655 6.482691,-2.347063 8.344038,-5.029682 1.882986,-2.713097 2.824639,-6.417397 2.824639,-11.111975 0,-5.822504 -1.28818,-10.31856 -3.863761,-13.488924 -2.553941,-3.170381 -6.21278,-4.097631 -10.907931,-4.755266 -2.064754,-0.289201 -4.03946,-0.498547 -5.927927,-0.632804 m -5.890204,5.525757 c 0,0 8.192558,-0.80733 11.949762,0.527059 2.05849,0.731082 3.704181,1.741065 5.262529,3.905449 1.558339,2.164386 1.942736,4.345877 1.942736,8.918523 0,4.572634 -0.779691,7.957321 -2.33803,10.152192 -1.558348,2.164379 -3.970814,3.246624 -7.239,3.246624 l -9.577997,0 0,-26.749847 m -3.914884,0.131067 -0.675629,58.398302 C 12.605972,96.174031 16.677084,34.960454 49.648198,36.785762 Z m 3.914884,31.510559 7.239966,0 c 2.121065,0 3.787791,0.626029 4.999823,1.875892 1.21205,1.219373 2.543539,3.931582 3.993669,8.13841 l 5.626013,16.866611 -15.009181,0.007 -6.85029,0 0,-26.886372 z"
     id="path4141-0-3" /><path
     style="font-style:normal;font-variant:normal;font-weight:normal;font-stretch:normal;font-size:180px;line-height:100%;font-family:'DejaVu Serif';-inkscape-font-specification:'DejaVu Serif';text-align:justify;letter-spacing:0px;word-spacing:0px;writing-mode:lr-tb;text-anchor:start;fill:#dadada;fill-opacity:1;stroke:#f6f6f6;stroke-width:1.00111127px;stroke-linecap:butt;stroke-linejoin:miter;stroke-opacity:1"
     d="m 54.403703,30.897477 0,-1.96e-4 C 25.857174,31.079074 19.637895,49.885924 19.61195,66.183003 19.497247,83.973255 25.440918,101.39823 54.267358,100.55644 M 47.885806,36.738402 47.197164,95.155078 C 19.665485,94.959103 20.658905,36.82371 47.885806,36.738402 Z"
     id="path4141-0" /><rect
     y="31.098005"
     x="54.264614"
     height="69.287277"
     width="0.00067607767"
     id="rect8583"
     style="opacity:1;fill:#d5d5d5;fill-opacity:1;stroke:#f6f6f6;stroke-width:1.27036607;stroke-linejoin:miter;stroke-miterlimit:4;stroke-dasharray:none;stroke-opacity:1" /><rect
     y="63.525772"
     x="55.266491"
     height="4.6293888"
     width="0.017623782"
     id="rect8591"
     style="opacity:1;fill:#d5d5d5;fill-opacity:1;stroke:#dfdfdf;stroke-width:0.77061093;stroke-linejoin:miter;stroke-miterlimit:4;stroke-dasharray:none;stroke-opacity:1" /><rect
     y="95.149307"
     x="55.266491"
     height="4.6293888"
     width="0.017623782"
     id="rect8591-6"
     style="opacity:1;fill:#d5d5d5;fill-opacity:1;stroke:#dfdfdf;stroke-width:0.77061093;stroke-linejoin:miter;stroke-miterlimit:4;stroke-dasharray:none;stroke-opacity:1" /><rect
     y="31.375179"
     x="55.332371"
     height="4.6293888"
     width="0.017623782"
     id="rect8591-7"
     style="opacity:1;fill:#d5d5d5;fill-opacity:1;stroke:#dfdfdf;stroke-width:0.77061093;stroke-linejoin:miter;stroke-miterlimit:4;stroke-dasharray:none;stroke-opacity:1" /></svg>