<?xml version="1.0" encoding="UTF-8" standalone="no"?>
<svg
   xmlns:dc="http://purl.org/dc/elements/1.1/"
   xmlns:cc="http://creativecommons.org/ns#"
   xmlns:rdf="http://www.w3.org/1999/02/22-rdf-syntax-ns#"
   xmlns:svg="http://www.w3.org/2000/svg"
   xmlns="http://www.w3.org/2000/svg"
   xmlns:xlink="http://www.w3.org/1999/xlink"
   xmlns:sodipodi="http://sodipodi.sourceforge.net/DTD/sodipodi-0.dtd"
   xmlns:inkscape="http://www.inkscape.org/namespaces/inkscape"
   version="1.1"
   id="svg2"
   viewBox="0 0 600.00063 103.86796"
   height="29.313847mm"
   width="169.33351mm"
   inkscape:version="0.91 r13725"
   sodipodi:docname="rclogo_ss.svg">
  <sodipodi:namedview
     pagecolor="#ffffff"
     bordercolor="#666666"
     borderopacity="1"
     objecttolerance="10"
     gridtolerance="10"
     guidetolerance="10"
     inkscape:pageopacity="0"
     inkscape:pageshadow="2"
     inkscape:window-width="1920"
     inkscape:window-height="1027"
     id="namedview6313"
     showgrid="false"
     fit-margin-top="0"
     fit-margin-left="0"
     fit-margin-right="0"
     fit-margin-bottom="0"
     inkscape:zoom="2.3359994"
     inkscape:cx="277.02902"
     inkscape:cy="37.879169"
     inkscape:window-x="0"
     inkscape:window-y="0"
     inkscape:window-maximized="1"
     inkscape:current-layer="svg2" />
  <defs
     id="defs4">
    <linearGradient
       id="linearGradient5269">
      <stop
         id="stop5271"
         offset="0"
         style="stop-color:#000000;stop-opacity:1" />
      <stop
         style="stop-color:#666666;stop-opacity:1"
         offset="0.04066001"
         id="stop5277" />
      <stop
         id="stop5279"
         offset="0.10719132"
         style="stop-color:#676767;stop-opacity:1;" />
      <stop
         id="stop5273"
         offset="1"
         style="stop-color:#808080;stop-opacity:1" />
    </linearGradient>
    <linearGradient
       y2="257.33017"
       x2="864.56403"
       y1="257.33017"
       x1="127.56405"
       gradientUnits="userSpaceOnUse"
       id="linearGradient5378"
       xlink:href="#linearGradient5269" />
    <filter
       id="filter6214"
       style="color-interpolation-filters:sRGB">
      <feFlood
         id="feFlood6216"
         result="flood"
         flood-color="rgb(0,0,0)"
         flood-opacity="0.498039" />
      <feComposite
         id="feComposite6218"
         result="composite1"
         operator="out"
         in2="SourceGraphic"
         in="flood" />
      <feGaussianBlur
         id="feGaussianBlur6220"
         result="blur"
         stdDeviation="1"
         in="composite1" />
      <feOffset
         id="feOffset6222"
         result="offset"
         dy="2.5"
         dx="3.4" />
      <feComposite
         id="feComposite6224"
         result="composite2"
         operator="atop"
         in2="SourceGraphic"
         in="offset" />
    </filter>
    <filter
       style="color-interpolation-filters:sRGB"
       inkscape:label="Drop Shadow"
       id="filter11252">
      <feFlood
         flood-opacity="0.498039"
         flood-color="rgb(0,0,0)"
         result="flood"
         id="feFlood11254" />
      <feComposite
         in="flood"
         in2="SourceGraphic"
         operator="in"
         result="composite1"
         id="feComposite11256" />
      <feGaussianBlur
         in="composite1"
         stdDeviation="3"
         result="blur"
         id="feGaussianBlur11258" />
      <feOffset
         dx="3"
         dy="3"
         result="offset"
         id="feOffset11260" />
      <feComposite
         in="SourceGraphic"
         in2="offset"
         operator="over"
         result="composite2"
         id="feComposite11262" />
    </filter>
  </defs>
  <metadata
     id="metadata7">
    <rdf:RDF>
      <cc:Work
         rdf:about="">
        <dc:format>image/svg+xml</dc:format>
        <dc:type
           rdf:resource="http://purl.org/dc/dcmitype/StillImage" />
        <dc:title></dc:title>
      </cc:Work>
    </rdf:RDF>
  </metadata>
  <g
     style="font-style:normal;font-variant:normal;font-weight:normal;font-stretch:normal;font-size:medium;line-height:100%;font-family:'DejaVu Serif';-inkscape-font-specification:'DejaVu Serif';text-align:justify;letter-spacing:0px;word-spacing:0px;writing-mode:lr-tb;text-anchor:start;fill:#000000;fill-opacity:1;stroke:none;stroke-width:1px;stroke-linecap:butt;stroke-linejoin:miter;stroke-opacity:1"
     id="g4480"
     transform="translate(2.4081293,-94.079701)" />
  <g
     style="font-style:normal;font-variant:normal;font-weight:normal;font-stretch:normal;font-size:medium;line-height:100%;font-family:'DejaVu Serif';-inkscape-font-specification:'DejaVu Serif';text-align:justify;letter-spacing:0px;word-spacing:0px;writing-mode:lr-tb;text-anchor:start;fill:#000000;fill-opacity:1;stroke:none;stroke-width:1px;stroke-linecap:butt;stroke-linejoin:miter;stroke-opacity:1"
     transform="translate(25.431566,-108.09142)"
     id="g5454" />
  <g
     transform="translate(-129.99243,-111.31372)"
     id="text5151"
     style="font-style:normal;font-variant:normal;font-weight:normal;font-stretch:normal;font-size:15.15018559px;line-height:100%;font-family:Arial;-inkscape-font-specification:'Arial, Normal';text-align:justify;letter-spacing:0px;word-spacing:0px;writing-mode:lr-tb;text-anchor:start;fill:url(#linearGradient5378);fill-opacity:1;stroke:none;stroke-width:1px;stroke-linecap:butt;stroke-linejoin:miter;stroke-opacity:1" />
  <path
     id="path4757"
     d="m 678.85107,87.629329 c 1.30078,0 1.30859,0 1.30859,0 l -0.008,-0.004 0,0.0117"
     style="font-style:normal;font-variant:normal;font-weight:normal;font-stretch:normal;font-size:medium;line-height:100%;font-family:'DejaVu Serif';-inkscape-font-specification:'DejaVu Serif';text-align:justify;letter-spacing:0px;word-spacing:0px;writing-mode:lr-tb;text-anchor:start;fill:none;fill-opacity:1;fill-rule:evenodd;stroke:none;stroke-width:1px;stroke-linecap:butt;stroke-linejoin:miter;stroke-opacity:1"
     inkscape:connector-curvature="0" />
  <path
     style="font-style:normal;font-variant:normal;font-weight:normal;font-stretch:normal;font-size:180px;line-height:100%;font-family:'DejaVu Serif';-inkscape-font-specification:'DejaVu Serif';text-align:justify;letter-spacing:0px;word-spacing:0px;writing-mode:lr-tb;text-anchor:start;fill:#ffffff;fill-opacity:1;stroke:none;stroke-width:1px;stroke-linecap:butt;stroke-linejoin:miter;stroke-opacity:1;filter:url(#filter11252)"
     d="M 102.74664,8.6556635 C 59.469397,8.8550468 50.04183,29.482907 50.002497,47.356835 49.828605,66.868411 58.839969,85.979291 102.54156,85.056054 l 33.10742,-0.04492 3.30664,0.0078 5.95313,9.99414 38.53515,0.199219 360.94726,0 0,-2.970703 -391.47656,0 -3.73828,-7.201172 7.11719,0.01563 0,0.0332 393.70703,0 0,-5.955078 -21.46484,0 0,-17.818359 c 0,-4.089963 -0.82845,-7.18248 -2.48438,-9.277344 -1.63599,-2.114796 -4.06132,-3.171875 -7.27344,-3.171875 -2.23451,0 -4.08807,0.417924 -5.56445,1.255859 -1.47638,0.837951 -2.78272,2.204254 -3.91992,4.09961 l 0,-4.488282 -13.61719,0 0,3.621094 4.06836,0 0,25.779297 -13.71875,0 c 0.45421,-0.363885 0.89051,-0.755171 1.30078,-1.179687 2.87294,-2.992648 4.31055,-7.102915 4.31055,-12.330078 0,-5.247127 -1.43761,-9.346083 -4.31055,-12.298829 -2.85299,-2.972708 -6.80396,-4.458984 -11.85156,-4.458984 -5.04762,0 -9.00793,1.486276 -11.88086,4.458984 -2.853,2.952746 -4.2793,7.051702 -4.2793,12.298829 0,5.227163 1.4263,9.33743 4.2793,12.330078 0.41021,0.424454 0.84624,0.815848 1.30078,1.179687 l -21.43945,0 0,-13.779297 c 0,-3.611135 0.5959,-6.431789 1.79297,-8.466797 1.19706,-2.035 2.83524,-3.054687 4.91015,-3.054687 1.37662,0 2.42435,0.41987 3.14258,1.257812 0.71825,0.817996 1.12681,2.073692 1.22656,3.769532 l 3.05274,0 0,-9.484375 c -1.03745,-0.159607 -1.95587,-0.281525 -2.75391,-0.361329 -0.79805,-0.09975 -1.47652,-0.148437 -2.03515,-0.148437 -2.23452,0 -4.12003,0.537882 -5.65626,1.615234 -1.53622,1.057406 -2.76194,2.693642 -3.67968,4.908203 l 0,-5.65625 -13.91797,0 0,3.621094 4.37109,0 0,25.779297 -11.375,0 0,-17.130859 c 0,-4.528873 -1.18442,-7.850033 -3.55859,-9.964844 -2.37417,-2.114796 -6.12649,-3.171875 -11.25391,-3.171875 -2.035,0 -3.96919,0.170605 -5.80468,0.509766 -1.81554,0.339168 -3.58109,0.847062 -5.29688,1.52539 l 0,6.853516 3.05273,0 c 0.43892,-1.975152 1.16609,-3.392103 2.1836,-4.25 1.03745,-0.877844 2.51439,-1.316406 4.42969,-1.316406 2.29437,0 3.99058,0.616556 5.08789,1.853515 1.0973,1.21702 1.64453,3.113824 1.64453,5.6875 l 0,1.884766 -5.02735,0 c -4.52888,0 -7.92131,0.886466 -10.17578,2.662109 -2.25446,1.775636 -3.38086,4.450244 -3.38086,8.021485 0,2.855373 0.60105,5.134146 1.80078,6.835937 l -12.72656,0 c 0.0304,-0.02439 0.0637,-0.04765 0.0937,-0.07227 2.75325,-2.234517 4.65745,-5.656941 5.71485,-10.265626 l -5.35547,0 c -0.75814,3.351779 -1.9858,5.855789 -3.68164,7.511719 -1.69584,1.655938 -3.8906,2.484375 -6.58399,2.484375 -3.95031,0 -6.87224,-1.594945 -8.76758,-4.787109 -1.89535,-3.192172 -2.84375,-8.112175 -2.84375,-14.755859 0,-6.6437 0.9484,-11.55979 2.84375,-14.751954 1.89534,-3.21211 4.80598,-4.818359 8.73633,-4.818359 3.03255,0 5.46724,0.937107 7.30274,2.8125 1.85544,1.855446 3.13374,4.659354 3.83203,8.410156 l 3.41015,0 0,-10.984375 c -2.87294,-1.296815 -5.60558,-2.263902 -8.19922,-2.902344 -2.59363,-0.638426 -5.07895,-0.957031 -7.45312,-0.957031 -6.8033,0 -12.18056,2.084148 -16.13086,6.253907 -3.93036,4.149811 -5.89258,9.795033 -5.89258,16.9375 0,7.122512 1.96222,12.769694 5.89258,16.939453 1.08492,1.139724 2.28386,2.118612 3.58398,2.945312 l -44.52148,0 0,-13.779297 c 0,-3.611135 0.59786,-6.431789 1.79492,-8.466797 1.19707,-2.035 2.8333,-3.054687 4.90821,-3.054687 1.37661,0 2.42434,0.41987 3.14257,1.257812 0.71825,0.817996 1.12682,2.073692 1.22657,3.769532 l 3.05078,0 0,-9.484375 c -1.03745,-0.159607 -1.95196,-0.281525 -2.75,-0.361329 -0.79804,-0.09975 -1.47848,-0.148437 -2.03711,-0.148437 -2.23452,0 -4.11807,0.537882 -5.6543,1.615234 -1.53622,1.057406 -2.76389,2.693642 -3.68164,4.908203 l 0,-5.65625 -13.91602,0 0,3.621094 4.36719,0 0,25.779297 -12.875,0 c 1.82483,-1.690763 3.07641,-4.098514 3.75,-7.224609 l -4.49023,0 c -0.35912,2.314319 -1.17626,4.079863 -2.45313,5.296875 -1.27687,1.217012 -2.94308,1.824218 -4.99804,1.824219 -2.47392,0 -4.26945,-0.907112 -5.38672,-2.722657 -1.11725,-1.835484 -1.67578,-4.808059 -1.67578,-8.917969 l 0,-0.240234 19.6914,0 c -0.1596,-5.985311 -1.50723,-10.522829 -4.04101,-13.615234 -2.53379,-3.112361 -6.16224,-4.667969 -10.89063,-4.667969 -4.8481,0 -8.6304,1.476941 -11.34375,4.429687 -2.69338,2.952754 -4.04101,7.061052 -4.04101,12.328126 0,5.38677 1.31763,9.536366 3.95117,12.449218 0.34668,0.377966 0.71342,0.731962 1.09961,1.060547 l -12.88867,0 0,-29.400391 -13.61914,0 0,3.621094 4.07031,0 0,25.779297 -11.43164,0 0,-17.818359 c 0,-4.089963 -0.82845,-7.18248 -2.48438,-9.277344 -1.63599,-2.114796 -4.05937,-3.171875 -7.27148,-3.171875 -2.23451,0 -4.09002,0.417924 -5.56641,1.255859 -1.47637,0.837951 -2.78271,2.204254 -3.91992,4.09961 l 0,-4.488282 -13.61719,0 0,3.621094 4.07031,0 0,25.779297 -11.52148,0 0,-29.400391 -13.61719,0 0,3.621094 4.07031,0 0,25.779297 -12.87695,0 c 1.82483,-1.690763 3.07447,-4.098514 3.74805,-7.224609 l -4.48828,0 c -0.35913,2.314319 -1.17626,4.079863 -2.45313,5.296875 -1.27686,1.217012 -2.94308,1.824218 -4.99804,1.824219 -2.47393,0 -4.26946,-0.907112 -5.38672,-2.722657 -1.11726,-1.835484 -1.67578,-4.808059 -1.67578,-8.917969 l 0,-0.240234 19.6914,0 c -0.15961,-5.985311 -1.50528,-10.522829 -4.03906,-13.615234 -2.53378,-3.112361 -6.16613,-4.667969 -10.89453,-4.667969 -4.8481,0 -8.62846,1.476941 -11.3418,4.429687 -2.69339,2.952754 -4.04101,7.061052 -4.04101,12.328126 0,5.38677 1.31763,9.536366 3.95117,12.449218 0.34634,0.377597 0.71384,0.730285 1.09961,1.058594 l -7.49805,0 -10.88671,-22.224609 c -1.33778,-2.742433 -2.85879,-4.866097 -4.56446,-6.371094 -1.67221,-1.538442 -3.68036,-2.626283 -6.02148,-3.261719 5.71899,-0.735776 10.01831,-2.574472 12.89453,-5.517578 2.90965,-2.976543 4.36523,-7.040978 4.36523,-12.191406 0,-6.387878 -1.99082,-11.320617 -5.9707,-14.798828 -3.94638,-3.478206 -9.60033,-4.495295 -16.85542,-5.2167832 C 113.88708,8.9156249 108.06138,8.633135 102.74664,8.6576166 l 0,-0.00195 z m -0.74024,6.2636715 14.80078,0 c 5.0501,0 8.77756,1.185997 11.18555,3.560547 2.408,2.37455 3.61133,6.06928 3.61133,11.085938 0,5.016643 -1.20333,8.730676 -3.61133,11.138672 -2.40799,2.374544 -6.13545,3.5625 -11.18555,3.5625 l -14.80078,0 0,-29.347657 z M 92.865779,15.061914 91.82281,79.132226 C 50.084107,78.917288 51.589124,15.155475 92.865779,15.061914 Z M 192.8189,34.979882 c -1.45642,0 -2.69343,0.558527 -3.71094,1.675782 -0.99756,1.097307 -1.49609,2.454283 -1.49609,4.070312 0,1.596082 0.49853,2.941755 1.49609,4.039062 1.01751,1.097308 2.25452,1.646485 3.71094,1.646485 1.41652,0 2.62354,-0.549177 3.62109,-1.646485 0.99756,-1.117254 1.49805,-2.462927 1.49805,-4.039062 0,-1.616029 -0.50049,-2.973005 -1.49805,-4.070312 -0.99755,-1.117255 -2.20457,-1.675782 -3.62109,-1.675782 z m 61.29101,0 c -1.45642,0 -2.69537,0.558527 -3.71289,1.675782 -0.99755,1.097307 -1.49609,2.454283 -1.49609,4.070312 0,1.596082 0.49854,2.941755 1.49609,4.039062 1.01752,1.097308 2.25647,1.646485 3.71289,1.646485 1.41652,0 2.6216,-0.549177 3.61915,-1.646485 0.99755,-1.117254 1.49609,-2.462927 1.49609,-4.039062 0,-1.616029 -0.49854,-2.973005 -1.49609,-4.070312 -0.99755,-1.117255 -2.20263,-1.675782 -3.61915,-1.675782 z m -152.10351,14.652344 11.1875,0 c 3.27755,0 5.85173,0.687366 7.72461,2.058594 1.87289,1.337775 3.9311,4.314369 6.17188,8.929687 l 8.69336,18.503907 -23.19141,0.0078 -10.58594,0 0,-29.498047 0,-0.002 z m 62.95117,2.615234 c 1.69583,0 2.89351,0.847122 3.5918,2.542969 0.69828,1.675878 1.04687,4.609115 1.04687,8.798828 l -9.21679,0 0,-0.539062 c 0,-3.890439 0.34858,-6.662421 1.04687,-8.31836 0.71823,-1.655922 1.89526,-2.484375 3.53125,-2.484375 z m 117.43359,0 c 1.69584,0 2.89156,0.847122 3.58985,2.542969 0.69828,1.675878 1.04883,4.609115 1.04883,8.798828 l -9.21875,0 0,-0.539062 c 0,-3.890439 0.34859,-6.662421 1.04687,-8.31836 0.71825,-1.655922 1.89722,-2.484375 3.5332,-2.484375 z m 193.08399,0 c 2.01505,0 3.42267,0.957752 4.2207,2.873047 0.81801,1.895348 1.22656,5.39644 1.22656,10.503907 0,5.107451 -0.40855,8.6179 -1.22656,10.533203 -0.81797,1.915287 -2.2256,2.873047 -4.2207,2.873047 -2.03501,0 -3.47064,-0.965141 -4.30859,-2.900391 -0.81799,-1.93525 -1.22852,-5.43831 -1.22852,-10.505859 0,-5.067565 0.41053,-8.557354 1.22852,-10.472657 0.83795,-1.935242 2.27358,-2.904297 4.30859,-2.904297 z m -250.7832,1.585938 c 1.51628,0 2.58268,0.528532 3.20117,1.585937 0.61848,1.037459 0.92773,2.902307 0.92773,5.595703 l 0,18.117188 -9.69531,0 0,-15.484375 c 0,-3.411619 0.44986,-5.893039 1.34766,-7.449219 0.89779,-1.576135 2.30345,-2.365234 4.21875,-2.365234 z m 290.16601,0 c 1.51628,0 2.58464,0.528532 3.20313,1.585937 0.61848,1.037459 0.92773,2.902307 0.92773,5.595703 l 0,18.117188 -9.69531,0 0,-15.484375 c 0,-3.411619 0.4479,-5.893039 1.3457,-7.449219 0.89779,-1.576135 2.30346,-2.365234 4.21875,-2.365234 z m -105.42969,11.341797 3.58985,0 0,6.375 c 0,1.775643 -0.44791,3.201944 -1.34571,4.279297 -0.89779,1.077368 -2.08613,1.617187 -3.5625,1.617187 -1.41652,0 -2.47163,-0.500498 -3.16992,-1.498047 -0.69829,-0.997557 -1.04883,-2.504478 -1.04883,-4.519531 0,-2.015053 0.4779,-3.559351 1.43555,-4.636719 0.95765,-1.077352 2.32593,-1.617187 4.10156,-1.617187 z"
     id="path4141-0"
     inkscape:connector-curvature="0" />
</svg>
